# xmcd
#
# Track frame offsets:
#	150
#	21100
#	37434
#	59915
#	73578
#	97840
#	117406
#	132649
#	145174
#	154015
#	169421
#	187271
#
# Disc length: 2610 seconds
#
# Revision: 1
# Processed by: cddbd v1.5.2PL0 Copyright (c) Steve Scherf et al.
# Submitted via: audiograbber 1.83.01
#
DISCID=be0a300c
DTITLE=Dollars Taxes - Hobo's Last Letter
DYEAR=1900
DGENRE=Country
TTITLE0=Frankie And Johnny
TTITLE1=Cajun Billy
TTITLE2=Midnight On The Water
TTITLE3=Turkey In The Straw
TTITLE4=Hobo's Las Letter
TTITLE5=Wahoo, Wahoo, Wahoo
TTITLE6=I Grept Into The Grypt
TTITLE7=Devil's Dream
TTITLE8=Fryin' Pan
TTITLE9=Gilderoy
TTITLE10=Whiskey Before Breakfast
TTITLE11=Minuet In G
EXTD=
EXTT0=
EXTT1=
EXTT2=
EXTT3=
EXTT4=
EXTT5=
EXTT6=
EXTT7=
EXTT8=
EXTT9=
EXTT10=
EXTT11=
PLAYORDER=
